<svg width="22" height="24" viewBox="0 0 22 24" fill="none" xmlns="http://www.w3.org/2000/svg">
<path fill-rule="evenodd" clip-rule="evenodd" d="M16.21 -7.82978e-06C15.665 0.00298289 15.126 0.133995 14.954 0.366997C14.844 0.532005 14.762 1.56298 14.844 2.08498C14.844 2.08498 14.876 2.42998 14.934 2.699C14.9277 2.7597 14.921 2.82037 14.9141 2.881C14.9034 2.97243 14.8911 3.06362 14.877 3.15453C14.8596 3.26546 14.8396 3.376 14.817 3.48598C14.8086 3.53274 14.6701 3.56762 14.4978 3.61102C14.4636 3.61962 14.4281 3.62856 14.392 3.63799C14.3464 3.62267 14.3004 3.60867 14.254 3.596C14.1534 3.56637 14.0682 3.58486 13.9854 3.62649C13.9258 3.65639 13.8673 3.69823 13.8052 3.7427C13.7524 3.78045 13.697 3.82012 13.636 3.85598C13.567 3.816 13.265 3.678 13.1 3.77398C13.0712 3.79076 13.044 3.80755 13.018 3.82421C12.9898 3.84231 12.9628 3.86025 12.9363 3.87783C12.8475 3.93679 12.7649 3.99175 12.66 4.035C12.578 3.99398 12.358 3.99398 12.1801 4.06298C12.0004 4.11877 11.8355 4.21371 11.697 4.341C9.38306 4.92098 6.88404 5.97601 6.68506 6.08199C5.66798 6.604 4.00599 7.497 3.25098 8.11498C1.95997 9.186 1.19105 10.437 0.887946 11.357C0.503058 12.497 0.613044 13.184 0.984015 12.744C1.28199 12.378 2.61597 11.29 3.45899 10.745L3.45704 10.752C3.59656 10.6538 3.74366 10.5669 3.89698 10.492L4.13001 10.368L4.63502 10.045C5.23707 10.597 5.43799 11.478 5.57203 12.675C5.792 14.516 7.27601 15.368 9.00599 15.395C10.806 15.423 11.452 15.794 12.125 16.7C12.278 16.901 12.443 17.007 12.595 17.068C12.5267 17.1966 12.473 17.3325 12.4351 17.473C12.36 17.643 12.3101 17.853 12.278 18.081C12.2701 18.0915 12.2637 18.1029 12.2588 18.1149C12.2534 18.128 12.2498 18.1418 12.2481 18.156C12.1978 18.552 12.1918 19.3453 12.1868 20.0041V20.0062C12.1851 20.2384 12.1834 20.4537 12.1801 20.629C12.1722 21.0031 12.1644 21.1992 12.1497 21.3162C12.1378 21.4095 12.1215 21.4524 12.0971 21.495C12.0873 21.5143 12.0776 21.5324 12.0679 21.5506C12.0222 21.6358 11.9751 21.7238 11.919 21.962C11.8744 22.1571 11.8069 22.2604 11.7315 22.3757L11.7307 22.3769C11.6897 22.4397 11.6462 22.5062 11.603 22.593C11.397 22.978 11.438 23.403 11.644 23.596C11.85 23.788 12.4141 24.077 13.182 23.981C13.952 23.885 14.062 23.83 13.938 23.088C13.9341 23.0572 13.9174 22.9963 13.8965 22.9204C13.8427 22.7248 13.7614 22.4293 13.801 22.291C13.8533 22.1596 13.7998 21.9668 13.7649 21.8408C13.745 21.7692 13.7312 21.719 13.746 21.714C13.787 21.7 13.842 21.426 13.842 21.288L13.8419 21.2552C13.8408 21.0674 13.8378 20.4698 13.979 20.148C14.041 20.008 14.172 19.688 14.3051 19.363C14.7268 18.6731 14.7616 18.2427 14.7821 17.9884L14.785 17.953C14.8073 17.8033 14.8218 17.6228 14.8164 17.4237C14.8146 17.3542 14.8103 17.2825 14.803 17.209C14.8074 17.2024 14.813 17.195 14.8195 17.1869C14.8285 17.1757 14.8394 17.1631 14.8516 17.1489C14.9399 17.046 15.0972 16.863 15.119 16.563C15.119 16.563 15.7629 16.226 16.221 15.415C16.2579 15.5436 16.2944 15.6614 16.3283 15.7709C16.441 16.1355 16.5255 16.4086 16.507 16.687C16.0081 17.077 15.823 17.365 15.747 17.646C15.7344 17.6407 15.723 17.6356 15.7127 17.631C15.6838 17.618 15.662 17.6082 15.637 17.606H15.61C15.5736 17.6112 15.538 17.6209 15.504 17.635C15.312 17.703 15.463 18.953 15.669 19.462C15.875 19.97 15.985 20.272 16.067 20.822C16.1433 21.327 15.9168 21.9369 15.7943 22.2665L15.765 22.346C15.765 22.346 15.5859 22.882 15.9981 23.17C16.2991 23.3786 17.2992 23.3636 17.9689 23.3536C18.0953 23.3517 18.2101 23.35 18.306 23.35C18.5404 23.35 18.82 23.3829 19.108 23.4167C19.5636 23.4703 20.0405 23.5264 20.394 23.459C21.109 23.335 21.218 22.909 20.793 22.689C20.6598 22.6202 20.5051 22.5623 20.3297 22.4967L20.3283 22.4961C19.943 22.352 19.4583 22.1706 18.8831 21.756C18.8147 21.7088 18.7385 21.6631 18.6647 21.6188C18.5006 21.5203 18.3483 21.4288 18.32 21.344C18.2791 21.22 18.2791 20.506 18.293 19.887C18.3023 19.4471 18.4098 18.917 18.4955 18.4944C18.5303 18.3233 18.5614 18.1698 18.5811 18.047C18.645 17.649 18.505 17.659 18.319 17.696C18.3281 17.6536 18.3375 17.6114 18.3469 17.5691L18.351 17.5514C18.3731 17.4528 18.3951 17.3534 18.416 17.25C18.76 16.618 18.609 16.027 18.609 16.027C19.429 14.983 19.009 12.757 18.829 11.979C19.469 12.282 19.7889 12.167 19.7889 12.167C19.891 12.112 19.981 12.033 20.063 11.943C20.4 11.581 20.573 11.027 20.573 11.027V11C21.355 10.217 21.724 9.06399 20.833 8.30798C20.9058 8.09606 20.9238 7.86916 20.8855 7.6484C20.8473 7.4276 20.7539 7.22005 20.614 7.04501C20.735 6.75295 20.7644 6.43105 20.6982 6.12194C20.6322 5.81283 20.4738 5.53106 20.244 5.31399C20.1045 5.18169 19.9385 5.08047 19.757 5.01699L19.7072 4.94256C19.5468 4.70184 19.483 4.60601 19.1851 4.66799C19.1628 4.64355 19.1433 4.62002 19.1249 4.59805L19.1231 4.59566C19.0197 4.47073 18.9585 4.39687 18.691 4.48998C18.691 4.48998 18.595 4.256 18.416 4.20098C18.3999 4.19427 18.3832 4.18923 18.366 4.186C18.064 3.97601 17.79 3.971 17.594 4.02599C17.5352 3.98183 17.533 3.91402 17.526 3.69808L17.5241 3.63799L17.5199 3.53411C17.5125 3.34573 17.5031 3.11004 17.493 2.894C17.5053 2.74523 17.5274 2.53103 17.5502 2.31066L17.5509 2.30251C17.578 2.0396 17.606 1.76894 17.619 1.591C17.647 1.221 17.661 0.642998 17.496 0.395988C17.303 0.119987 16.754 -0.00299855 16.21 -7.82978e-06Z" fill="#D9D9D9"/>
</svg>
