<svg width="32" height="32" viewBox="0 0 32 32" fill="none" xmlns="http://www.w3.org/2000/svg">
<path fill-rule="evenodd" clip-rule="evenodd" d="M16 32C24.8366 32 32 24.8366 32 16C32 7.16344 24.8366 0 16 0C7.16344 0 0 7.16344 0 16C0 24.8366 7.16344 32 16 32ZM20.3066 4.36706C20.4786 4.13406 21.0177 4.00304 21.5626 4.00005C22.1067 3.99706 22.6556 4.12005 22.8486 4.39605C23.0137 4.64306 22.9996 5.22106 22.9717 5.59106C22.9588 5.76717 22.9312 6.0341 22.9044 6.29446L22.9036 6.30257L22.9028 6.31072C22.88 6.53109 22.8579 6.74529 22.8457 6.89407C22.8557 7.1101 22.8651 7.34579 22.8726 7.53417L22.8767 7.63805L22.8787 7.69814C22.8856 7.91409 22.8878 7.9819 22.9467 8.02605C23.1427 7.97106 23.4166 7.97607 23.7186 8.18606C23.7358 8.18929 23.7526 8.19433 23.7687 8.20104C23.9476 8.25607 24.0437 8.49004 24.0437 8.49004C24.3112 8.39693 24.3723 8.47079 24.4757 8.59573L24.4775 8.59811L24.4829 8.60453C24.4998 8.62464 24.5177 8.64597 24.5377 8.66805C24.8356 8.6061 24.8994 8.70182 25.0596 8.94234L25.1096 9.01705C25.2911 9.08053 25.4572 9.18176 25.5967 9.31405C25.8264 9.53112 25.9849 9.81289 26.0509 10.122C26.1171 10.4311 26.0877 10.753 25.9667 11.0451C26.1066 11.2201 26.2 11.4277 26.2382 11.6485C26.2765 11.8692 26.2584 12.0961 26.1857 12.308C27.0767 13.064 26.7076 14.2171 25.9257 15.0001V15.0271C25.9257 15.0271 25.7527 15.581 25.4157 15.943C25.3336 16.033 25.2437 16.1121 25.1416 16.167C25.1416 16.167 24.8217 16.2821 24.1816 15.9791C24.3617 16.757 24.7816 18.9831 23.9617 20.0271C23.9617 20.0271 24.1127 20.6181 23.7687 21.2501C23.7478 21.3535 23.7257 21.4528 23.7036 21.5514L23.6996 21.5692L23.6983 21.5751C23.6893 21.6154 23.6804 21.6557 23.6716 21.696C23.8577 21.659 23.9977 21.649 23.9337 22.0471C23.9141 22.1698 23.8829 22.3234 23.8482 22.4945L23.8479 22.4955C23.7623 22.9179 23.6549 23.4475 23.6456 23.887C23.6317 24.5061 23.6317 25.2201 23.6726 25.344C23.7009 25.4289 23.8533 25.5203 24.0173 25.6188C24.0912 25.6631 24.1674 25.7089 24.2357 25.7561C24.8109 26.1706 25.2957 26.352 25.6809 26.4961L25.6824 26.4968C25.8578 26.5624 26.0125 26.6203 26.1456 26.689C26.5707 26.909 26.4617 27.335 25.7467 27.459C25.3932 27.5264 24.9163 27.4704 24.4607 27.4168C24.1726 27.3829 23.8931 27.3501 23.6587 27.3501C23.5627 27.3501 23.448 27.3518 23.3215 27.3537C22.6519 27.3637 21.6517 27.3786 21.3507 27.17C20.9386 26.882 21.1177 26.3461 21.1177 26.3461L21.147 26.2665C21.2694 25.9369 21.496 25.327 21.4197 24.822C21.3377 24.2721 21.2277 23.9701 21.0216 23.4621C20.8157 22.9531 20.6647 21.7031 20.8567 21.6351C20.8906 21.621 20.9263 21.6112 20.9627 21.606H20.9896C21.0147 21.6083 21.0365 21.6181 21.0653 21.631C21.0757 21.6357 21.087 21.6408 21.0996 21.646C21.1757 21.365 21.3607 21.077 21.8596 20.6871C21.8782 20.4087 21.7937 20.1356 21.6809 19.771L21.6765 19.7565C21.6439 19.6511 21.609 19.5381 21.5736 19.4151C21.1156 20.2261 20.4717 20.563 20.4717 20.563C20.4499 20.8629 20.2928 21.0458 20.2044 21.1488C20.1922 21.163 20.1812 21.1758 20.1721 21.187C20.1657 21.1951 20.16 21.2024 20.1556 21.209C20.163 21.2825 20.1672 21.3543 20.1691 21.4238C20.1744 21.6229 20.1599 21.8033 20.1377 21.9531L20.1348 21.9884C20.1143 22.2427 20.0795 22.6731 19.6577 23.3631L19.6545 23.371C19.5225 23.6932 19.3932 24.0092 19.3317 24.1481C19.1904 24.4699 19.1935 25.0675 19.1946 25.2553L19.1947 25.288C19.1947 25.426 19.1397 25.7001 19.0986 25.714C19.0839 25.7191 19.0977 25.7692 19.1176 25.8408C19.1525 25.9669 19.2059 26.1598 19.1537 26.2911C19.114 26.4293 19.1953 26.7249 19.2492 26.9205C19.27 26.9964 19.2868 27.0573 19.2907 27.0881C19.4147 27.83 19.3047 27.8851 18.5347 27.981C17.7667 28.077 17.2026 27.788 16.9967 27.5961C16.7907 27.4031 16.7496 26.9781 16.9557 26.593C16.9987 26.5067 17.0419 26.4405 17.0828 26.3779L17.0834 26.377L17.0841 26.3758C17.1596 26.2605 17.2271 26.1572 17.2716 25.9621C17.3278 25.7239 17.3749 25.6358 17.4205 25.5507C17.4303 25.5325 17.4399 25.5144 17.4497 25.495C17.4741 25.4524 17.4905 25.4096 17.5023 25.3162C17.5171 25.1993 17.5249 25.0032 17.5327 24.6291C17.536 24.4538 17.5377 24.2385 17.5394 24.0063V24.0042L17.5395 24.0023C17.5445 23.3439 17.5505 22.5517 17.6007 22.1561C17.6024 22.1419 17.6061 22.128 17.6115 22.1149C17.6163 22.1029 17.6228 22.0915 17.6306 22.081C17.6627 21.8531 17.7127 21.6431 17.7877 21.473C17.8257 21.3325 17.8794 21.1967 17.9476 21.068C17.7957 21.007 17.6306 20.9011 17.4777 20.7001C16.8047 19.7941 16.1587 19.4231 14.3586 19.395C12.6287 19.3681 11.1447 18.516 10.9247 16.675C10.7907 15.4781 10.5897 14.597 9.98768 14.0451L9.48267 14.3681L9.24964 14.4921C9.09632 14.5669 8.94923 14.6539 8.8097 14.7521L8.81165 14.745C7.96863 15.2901 6.63465 16.378 6.33668 16.744C5.9657 17.184 5.85572 16.4971 6.24061 15.357C6.54371 14.4371 7.31263 13.1861 8.60364 12.115C9.35865 11.4971 11.0206 10.6041 12.0377 10.0821C12.2367 9.97607 14.7357 8.92104 17.0497 8.34106C17.1881 8.21377 17.353 8.11883 17.5327 8.06304C17.7107 7.99404 17.9307 7.99404 18.0127 8.03506C18.1173 7.99191 18.1998 7.93709 18.2884 7.87827C18.3149 7.8607 18.3424 7.84237 18.3706 7.82427C18.3966 7.80761 18.4238 7.79082 18.4526 7.77404C18.6177 7.67806 18.9197 7.81606 18.9887 7.85604C19.0497 7.82018 19.1051 7.78051 19.1578 7.74276C19.22 7.6983 19.2785 7.65646 19.338 7.62655C19.4209 7.58492 19.5061 7.56643 19.6067 7.59606C19.6531 7.60873 19.6991 7.62273 19.7446 7.63805C19.7805 7.62869 19.8158 7.61981 19.8497 7.61126L19.8508 7.611C20.0229 7.56764 20.1613 7.53277 20.1697 7.48605C20.1923 7.37606 20.2123 7.26553 20.2296 7.15459C20.2438 7.06368 20.2561 6.9725 20.2667 6.88107C20.2737 6.82043 20.2804 6.75976 20.2866 6.69906C20.2286 6.43005 20.1967 6.08504 20.1967 6.08504C20.1146 5.56304 20.1967 4.53207 20.3066 4.36706Z" fill="#D9D9D9"/>
</svg>
