<svg width="24" height="24" viewBox="0 0 24 24" fill="none" xmlns="http://www.w3.org/2000/svg">
<path fill-rule="evenodd" clip-rule="evenodd" d="M12 24C18.6274 24 24 18.6274 24 12C24 5.37258 18.6274 0 12 0C5.37258 0 0 5.37258 0 12C0 18.6274 5.37258 24 12 24ZM15.23 3.27529C15.359 3.10054 15.7633 3.00228 16.172 3.00004C16.58 2.9978 16.9917 3.09004 17.1365 3.29704C17.2603 3.48229 17.2497 3.9158 17.2288 4.19329C17.2191 4.32538 17.1984 4.52558 17.1783 4.72084L17.1777 4.72693L17.1771 4.73304C17.16 4.89832 17.1434 5.05897 17.1343 5.17055C17.1418 5.33257 17.1488 5.50934 17.1544 5.65063L17.1575 5.72854L17.159 5.77361C17.1642 5.93556 17.1659 5.98642 17.21 6.01954C17.357 5.9783 17.5625 5.98205 17.789 6.13954C17.8019 6.14197 17.8144 6.14575 17.8265 6.15078C17.9607 6.19205 18.0328 6.36753 18.0328 6.36753C18.2334 6.2977 18.2792 6.35309 18.3568 6.44679L18.3582 6.44858L18.3622 6.4534C18.3748 6.46848 18.3882 6.48448 18.4033 6.50104C18.6267 6.45457 18.6745 6.52637 18.7947 6.70676L18.8322 6.76279C18.9684 6.8104 19.0929 6.88632 19.1975 6.98554C19.3698 7.14834 19.4887 7.35967 19.5382 7.5915C19.5878 7.82334 19.5657 8.06476 19.475 8.2838C19.5799 8.41509 19.65 8.57075 19.6786 8.73635C19.7074 8.90192 19.6938 9.07209 19.6393 9.23103C20.3075 9.79804 20.0307 10.6628 19.4442 11.25V11.2703C19.4442 11.2703 19.3145 11.6858 19.0617 11.9573C19.0002 12.0248 18.9327 12.084 18.8562 12.1253C18.8562 12.1253 18.6162 12.2115 18.1362 11.9843C18.2713 12.5678 18.5862 14.2373 17.9713 15.0203C17.9713 15.0203 18.0845 15.4635 17.8265 15.9375C17.8109 16.0151 17.7943 16.0896 17.7777 16.1636L17.7747 16.1769L17.7737 16.1813C17.767 16.2116 17.7603 16.2417 17.7537 16.272C17.8933 16.2443 17.9983 16.2368 17.9503 16.5353C17.9356 16.6274 17.9122 16.7425 17.8861 16.8709L17.886 16.8716C17.8217 17.1884 17.7412 17.5856 17.7342 17.9153C17.7238 18.3795 17.7238 18.915 17.7545 19.008C17.7757 19.0717 17.89 19.1403 18.013 19.2141C18.0684 19.2474 18.1255 19.2817 18.1768 19.317C18.6082 19.628 18.9717 19.764 19.2607 19.8721L19.2618 19.8726C19.3933 19.9218 19.5093 19.9652 19.6092 20.0168C19.928 20.1818 19.8463 20.5013 19.31 20.5943C19.0449 20.6448 18.6872 20.6028 18.3455 20.5626C18.1295 20.5372 17.9198 20.5125 17.744 20.5125C17.6721 20.5125 17.586 20.5138 17.4912 20.5152C16.9889 20.5228 16.2388 20.534 16.013 20.3775C15.704 20.1615 15.8383 19.7595 15.8383 19.7595L15.8602 19.6999C15.9521 19.4527 16.122 18.9953 16.0648 18.6165C16.0032 18.204 15.9208 17.9775 15.7662 17.5965C15.6118 17.2148 15.4985 16.2773 15.6425 16.2263C15.668 16.2157 15.6947 16.2084 15.722 16.2045H15.7422C15.761 16.2062 15.7774 16.2135 15.799 16.2233C15.8068 16.2268 15.8153 16.2306 15.8247 16.2345C15.8818 16.0238 16.0205 15.8078 16.3947 15.5153C16.4086 15.3065 16.3453 15.1017 16.2607 14.8282L16.2573 14.8174C16.2329 14.7384 16.2067 14.6535 16.1802 14.5613C15.8367 15.1695 15.3538 15.4223 15.3538 15.4223C15.3374 15.6472 15.2196 15.7844 15.1533 15.8616C15.1441 15.8722 15.1359 15.8818 15.1291 15.8903C15.1242 15.8963 15.12 15.9018 15.1167 15.9068C15.1222 15.9619 15.1254 16.0157 15.1268 16.0678C15.1308 16.2171 15.1199 16.3525 15.1033 16.4648L15.1011 16.4913C15.0857 16.682 15.0596 17.0048 14.7433 17.5223L14.7409 17.5282C14.6419 17.7699 14.5449 18.0069 14.4988 18.111C14.3928 18.3524 14.3951 18.8006 14.3959 18.9415L14.396 18.966C14.396 19.0695 14.3547 19.275 14.324 19.2855C14.3129 19.2893 14.3232 19.3269 14.3382 19.3806C14.3644 19.4752 14.4044 19.6198 14.3653 19.7183C14.3355 19.822 14.3965 20.0437 14.4369 20.1903C14.4525 20.2473 14.4651 20.293 14.468 20.316C14.561 20.8725 14.4785 20.9138 13.901 20.9858C13.325 21.0578 12.902 20.841 12.7475 20.697C12.593 20.5523 12.5622 20.2335 12.7168 19.9448C12.749 19.88 12.7814 19.8303 12.8121 19.7835L12.8125 19.7827L12.8131 19.7818C12.8697 19.6954 12.9203 19.6179 12.9537 19.4715C12.9958 19.2929 13.0312 19.2269 13.0654 19.163C13.0727 19.1493 13.08 19.1358 13.0873 19.1213C13.1056 19.0893 13.1179 19.0572 13.1267 18.9872C13.1378 18.8995 13.1437 18.7524 13.1495 18.4718C13.152 18.3403 13.1533 18.1788 13.1546 18.0047V18.0032L13.1546 18.0017C13.1583 17.5079 13.1629 16.9138 13.2005 16.617C13.2018 16.6064 13.2046 16.596 13.2086 16.5862C13.2123 16.5772 13.2171 16.5687 13.223 16.5608C13.247 16.3898 13.2845 16.2323 13.3408 16.1048C13.3693 15.9994 13.4096 15.8975 13.4607 15.801C13.3467 15.7553 13.223 15.6758 13.1083 15.525C12.6035 14.8455 12.119 14.5673 10.769 14.5463C9.4715 14.526 8.35849 13.887 8.19352 12.5063C8.09299 11.6085 7.9423 10.9478 7.49076 10.5338L7.112 10.776L6.93723 10.869C6.82224 10.9252 6.71192 10.9904 6.60727 11.0641L6.60874 11.0588C5.97648 11.4675 4.97599 12.2835 4.75251 12.558C4.47428 12.888 4.39179 12.3728 4.68046 11.5178C4.90778 10.8278 5.48447 9.88954 6.45273 9.08628C7.01899 8.6228 8.26548 7.95304 9.02829 7.56154C9.17753 7.48205 11.0518 6.69078 12.7873 6.25579C12.8911 6.16033 13.0148 6.08912 13.1495 6.04728C13.283 5.99553 13.448 5.99553 13.5095 6.02629C13.588 5.99393 13.6499 5.95282 13.7163 5.90871C13.7361 5.89552 13.7568 5.88178 13.778 5.8682C13.7975 5.85571 13.8179 5.84312 13.8395 5.83053C13.9633 5.75855 14.1898 5.86205 14.2415 5.89203C14.2873 5.86514 14.3288 5.83538 14.3684 5.80707C14.415 5.77372 14.4588 5.74234 14.5035 5.71991C14.5657 5.68869 14.6296 5.67482 14.705 5.69705C14.7398 5.70654 14.7743 5.71705 14.8085 5.72854C14.8354 5.72152 14.8618 5.71486 14.8873 5.70844L14.8881 5.70825C15.0172 5.67573 15.121 5.64958 15.1273 5.61453C15.1442 5.53205 15.1592 5.44914 15.1722 5.36595C15.1828 5.29776 15.1921 5.22937 15.2 5.1608C15.2053 5.11532 15.2103 5.06982 15.215 5.02429C15.1715 4.82253 15.1475 4.56378 15.1475 4.56378C15.086 4.17228 15.1475 3.39905 15.23 3.27529Z"/>
</svg>
